# Blender v2.82 (sub 7) OBJ File: ''
# www.blender.org
mtllib gothic Windows obj.mtl
o round_window_Mesh
v -0.200867 -0.000000 -4.674445
v -0.024148 -0.000000 -4.674445
v -0.200867 -1.682246 -4.674445
v 0.200867 -1.682246 -4.674445
v -0.200867 -1.554192 -5.318213
v 0.200867 -1.554192 -5.318213
v -0.200866 -1.189528 -5.863973
v 0.200867 -1.189528 -5.863973
v -0.200867 -0.643768 -6.228638
v 0.200867 -0.643768 -6.228638
v -0.200867 -0.000000 -6.356691
v 0.200867 0.000000 -6.356691
v -0.200867 0.643768 -6.228638
v 0.200867 0.643768 -6.228638
v -0.200867 1.189528 -5.863973
v 0.200867 1.189528 -5.863973
v -0.200867 1.554192 -5.318213
v 0.200867 1.554192 -5.318213
v -0.200867 1.682246 -4.674445
v 0.200867 1.682246 -4.674445
v -0.200867 1.554192 -4.030678
v 0.200867 1.554192 -4.030677
v -0.200867 1.189528 -3.484918
v 0.200866 1.189528 -3.484918
v -0.200867 0.643768 -3.120253
v 0.200867 0.643768 -3.120253
v -0.200867 -0.000000 -2.992199
v 0.200867 0.000000 -2.992199
v -0.200867 -0.643768 -3.120253
v 0.200867 -0.643768 -3.120253
v -0.200867 -1.189528 -3.484918
v 0.200867 -1.189528 -3.484918
v -0.200867 -1.554192 -4.030678
v 0.200867 -1.554192 -4.030677
v 0.200867 -1.373509 -4.674445
v 0.200867 -1.268957 -5.200064
v 0.200867 -0.971218 -5.645663
v 0.200867 -0.525619 -5.943402
v 0.200867 0.000000 -6.047955
v 0.200867 0.525619 -5.943402
v 0.200867 0.971218 -5.645663
v 0.200867 1.268957 -5.200064
v 0.200867 1.373509 -4.674445
v 0.200867 1.268957 -4.148826
v 0.200867 0.971218 -3.703227
v 0.200867 0.525619 -3.405488
v 0.200867 0.000000 -3.300936
v 0.200867 -0.525619 -3.405488
v 0.200867 -0.971218 -3.703227
v 0.200867 -1.268957 -4.148826
v -0.024148 -1.373509 -4.674445
v -0.024148 -1.268957 -5.200065
v -0.024148 -0.971218 -5.645663
v -0.024148 -0.525619 -5.943402
v -0.024148 -0.000000 -6.047955
v -0.024148 0.525619 -5.943402
v -0.024148 0.971218 -5.645663
v -0.024148 1.268957 -5.200065
v -0.024148 1.373509 -4.674445
v -0.024148 1.268957 -4.148826
v -0.024148 0.971218 -3.703227
v -0.024148 0.525619 -3.405488
v -0.024148 -0.000000 -3.300936
v -0.024148 -0.525619 -3.405488
v -0.024148 -0.971218 -3.703227
v -0.024148 -1.268957 -4.148826
vt 0.299708 0.456987
vt 0.413698 0.477591
vt 0.299708 0.727659
vt 0.690765 0.183147
vt 0.761899 0.183147
vt 0.761899 0.285045
vt 0.690765 0.285045
vt 0.338110 0.021798
vt 0.245041 0.225971
vt 0.245041 0.004975
vt 0.185718 0.477591
vt 0.608604 0.896432
vt 0.679738 0.896432
vt 0.679738 0.998330
vt 0.608604 0.998330
vt 0.417011 0.069703
vt 0.089082 0.536265
vt 0.608604 0.794534
vt 0.679738 0.794534
vt 0.469731 0.141400
vt 0.024512 0.624077
vt 0.608604 0.692636
vt 0.679738 0.692636
vt 0.488244 0.225971
vt 0.001838 0.727659
vt 0.608604 0.590739
vt 0.679738 0.590739
vt 0.469731 0.310543
vt 0.024512 0.831240
vt 0.608604 0.488841
vt 0.679738 0.488841
vt 0.417011 0.382239
vt 0.089082 0.919052
vt 0.608604 0.386943
vt 0.679738 0.386943
vt 0.338110 0.430145
vt 0.185718 0.977726
vt 0.608604 0.285045
vt 0.679738 0.285045
vt 0.245041 0.446967
vt 0.299708 0.998330
vt 0.608604 0.183147
vt 0.679738 0.183147
vt 0.151971 0.430145
vt 0.413698 0.977726
vt 0.690765 0.896432
vt 0.761899 0.896432
vt 0.761899 0.998330
vt 0.690765 0.998330
vt 0.073070 0.382239
vt 0.510334 0.919052
vt 0.690765 0.794534
vt 0.761899 0.794534
vt 0.020351 0.310543
vt 0.574904 0.831240
vt 0.690765 0.692636
vt 0.761899 0.692636
vt 0.001838 0.225971
vt 0.597578 0.727659
vt 0.690765 0.590739
vt 0.761899 0.590739
vt 0.020351 0.141400
vt 0.574904 0.624077
vt 0.690765 0.488841
vt 0.761899 0.488841
vt 0.073070 0.069703
vt 0.510334 0.536265
vt 0.690765 0.386943
vt 0.761899 0.386943
vt 0.151971 0.021798
vt 0.893286 0.998330
vt 0.838619 0.998330
vt 0.838619 0.902410
vt 0.893286 0.902410
vt 0.838619 0.806491
vt 0.893286 0.806491
vt 0.838619 0.710571
vt 0.893286 0.710571
vt 0.838619 0.614652
vt 0.893286 0.614652
vt 0.838619 0.518732
vt 0.893286 0.518732
vt 0.838619 0.422813
vt 0.893286 0.422813
vt 0.838619 0.326893
vt 0.893286 0.326893
vt 0.838619 0.230973
vt 0.893286 0.230973
vt 0.827592 0.998330
vt 0.772925 0.998330
vt 0.772925 0.902410
vt 0.827592 0.902410
vt 0.772925 0.806491
vt 0.827592 0.806491
vt 0.772925 0.710571
vt 0.827592 0.710571
vt 0.772925 0.614652
vt 0.827592 0.614652
vt 0.772925 0.518732
vt 0.827592 0.518732
vt 0.772925 0.422813
vt 0.827592 0.422813
vt 0.772925 0.326893
vt 0.827592 0.326893
vt 0.772925 0.230973
vt 0.827592 0.230973
vt 0.995025 0.998330
vt 0.955182 0.998330
vt 0.955182 0.912102
vt 0.995025 0.912102
vt 0.955182 0.825873
vt 0.995025 0.825873
vt 0.955182 0.739645
vt 0.995025 0.739645
vt 0.955182 0.653416
vt 0.995025 0.653416
vt 0.955182 0.567188
vt 0.995025 0.567188
vt 0.955182 0.480960
vt 0.995025 0.480960
vt 0.955182 0.394731
vt 0.995025 0.394731
vt 0.955182 0.308503
vt 0.995025 0.308503
vt 0.944155 0.998330
vt 0.904313 0.998330
vt 0.904313 0.912102
vt 0.944155 0.912102
vt 0.904313 0.825873
vt 0.944155 0.825873
vt 0.904313 0.739645
vt 0.944155 0.739645
vt 0.904313 0.653416
vt 0.944155 0.653416
vt 0.904313 0.567188
vt 0.944155 0.567188
vt 0.904313 0.480960
vt 0.944155 0.480960
vt 0.904313 0.394731
vt 0.944155 0.394731
vt 0.904313 0.308503
vt 0.944155 0.308503
vn -1.0000 -0.0000 -0.0000
vn 0.0000 -0.9239 -0.3827
vn 0.0000 -1.0000 -0.0000
vn 1.0000 0.0000 0.0000
vn 0.0000 -0.7071 -0.7071
vn -0.0000 -0.3827 -0.9239
vn 0.0000 0.0000 -1.0000
vn 0.0000 0.3827 -0.9239
vn 0.0000 0.7071 -0.7071
vn 0.0000 0.9239 -0.3827
vn -0.0000 1.0000 0.0000
vn -0.0000 0.9239 0.3827
vn -0.0000 0.7071 0.7071
vn -0.0000 0.3827 0.9239
vn -0.0000 -0.0000 1.0000
vn 0.0000 -0.3827 0.9239
vn -0.0000 -0.7071 0.7071
vn -0.0000 -0.9239 0.3827
usemtl Material.002
s 1
f 5/1/1 3/2/1 1/3/1
f 5/4/2 6/5/2 4/6/3 3/7/3
f 52/8/4 2/9/4 51/10/4
f 7/11/1 5/1/1 1/3/1
f 7/12/5 8/13/5 6/14/2 5/15/2
f 53/16/4 2/9/4 52/8/4
f 9/17/1 7/11/1 1/3/1
f 9/18/6 10/19/6 8/13/5 7/12/5
f 54/20/4 2/9/4 53/16/4
f 11/21/1 9/17/1 1/3/1
f 11/22/7 12/23/7 10/19/6 9/18/6
f 55/24/4 2/9/4 54/20/4
f 13/25/1 11/21/1 1/3/1
f 13/26/8 14/27/8 12/23/7 11/22/7
f 56/28/4 2/9/4 55/24/4
f 15/29/1 13/25/1 1/3/1
f 15/30/9 16/31/9 14/27/8 13/26/8
f 57/32/4 2/9/4 56/28/4
f 17/33/1 15/29/1 1/3/1
f 17/34/10 18/35/10 16/31/9 15/30/9
f 58/36/4 2/9/4 57/32/4
f 19/37/1 17/33/1 1/3/1
f 19/38/11 20/39/11 18/35/10 17/34/10
f 59/40/4 2/9/4 58/36/4
f 21/41/1 19/37/1 1/3/1
f 21/42/12 22/43/12 20/39/11 19/38/11
f 60/44/4 2/9/4 59/40/4
f 23/45/1 21/41/1 1/3/1
f 23/46/13 24/47/13 22/48/12 21/49/12
f 61/50/4 2/9/4 60/44/4
f 25/51/1 23/45/1 1/3/1
f 25/52/14 26/53/14 24/47/13 23/46/13
f 62/54/4 2/9/4 61/50/4
f 27/55/1 25/51/1 1/3/1
f 27/56/15 28/57/15 26/53/14 25/52/14
f 63/58/4 2/9/4 62/54/4
f 29/59/1 27/55/1 1/3/1
f 29/60/16 30/61/16 28/57/15 27/56/15
f 64/62/4 2/9/4 63/58/4
f 31/63/1 29/59/1 1/3/1
f 31/64/17 32/65/17 30/61/16 29/60/16
f 65/66/4 2/9/4 64/62/4
f 33/67/1 31/63/1 1/3/1
f 33/68/18 34/69/18 32/65/17 31/64/17
f 66/70/4 2/9/4 65/66/4
f 3/2/1 33/67/1 1/3/1
f 3/7/3 4/6/3 34/69/18 33/68/18
f 51/10/4 2/9/4 66/70/4
f 35/71/4 4/72/4 6/73/4 36/74/4
f 36/74/4 6/73/4 8/75/4 37/76/4
f 37/76/4 8/75/4 10/77/4 38/78/4
f 38/78/4 10/77/4 12/79/4 39/80/4
f 39/80/4 12/79/4 14/81/4 40/82/4
f 40/82/4 14/81/4 16/83/4 41/84/4
f 41/84/4 16/83/4 18/85/4 42/86/4
f 42/86/4 18/85/4 20/87/4 43/88/4
f 43/89/4 20/90/4 22/91/4 44/92/4
f 44/92/4 22/91/4 24/93/4 45/94/4
f 45/94/4 24/93/4 26/95/4 46/96/4
f 46/96/4 26/95/4 28/97/4 47/98/4
f 47/98/4 28/97/4 30/99/4 48/100/4
f 48/100/4 30/99/4 32/101/4 49/102/4
f 49/102/4 32/101/4 34/103/4 50/104/4
f 50/104/4 34/103/4 4/105/4 35/106/4
f 51/107/11 35/108/11 36/109/12 52/110/12
f 52/110/12 36/109/12 37/111/13 53/112/13
f 53/112/13 37/111/13 38/113/14 54/114/14
f 54/114/14 38/113/14 39/115/15 55/116/15
f 55/116/15 39/115/15 40/117/16 56/118/16
f 56/118/16 40/117/16 41/119/17 57/120/17
f 57/120/17 41/119/17 42/121/18 58/122/18
f 58/122/18 42/121/18 43/123/3 59/124/3
f 59/125/3 43/126/3 44/127/2 60/128/2
f 60/128/2 44/127/2 45/129/5 61/130/5
f 61/130/5 45/129/5 46/131/6 62/132/6
f 62/132/6 46/131/6 47/133/7 63/134/7
f 63/134/7 47/133/7 48/135/8 64/136/8
f 64/136/8 48/135/8 49/137/9 65/138/9
f 65/138/9 49/137/9 50/139/10 66/140/10
f 66/140/10 50/139/10 35/141/11 51/142/11
o window_Mesh.001
v 0.364846 2.669023 0.926842
v 0.208508 0.882072 1.654830
v 0.052170 -0.904879 1.654829
v -0.104168 -2.691829 1.654829
v 0.364846 3.333884 0.151896
v 0.187742 0.914287 0.551610
v 0.052170 -0.804427 0.551610
v -0.104168 -2.691829 0.551609
v 0.364846 3.333884 -0.151895
v 0.165274 0.914287 -0.551610
v 0.052170 -0.804426 -0.551610
v -0.104168 -2.691829 -0.551610
v 0.364846 2.669023 -0.926842
v 0.208508 0.882072 -1.654829
v 0.052170 -0.904878 -1.654830
v -0.104168 -2.691829 -1.654830
v 0.353004 2.558107 0.880037
v 0.220351 1.034786 1.508112
v 0.353004 3.175735 0.196200
v 0.199585 1.046484 0.635179
v 0.196666 0.762796 1.571261
v 0.064013 -0.760524 1.571260
v 0.175900 0.761328 0.635179
v 0.064013 -0.667040 0.635179
v 0.040328 -1.032514 1.571260
v -0.092325 -2.555835 1.571260
v 0.040328 -0.952195 0.635178
v -0.092325 -2.549252 0.635178
v 0.353004 3.204172 0.112899
v 0.199585 1.066669 0.468041
v 0.353004 3.204172 -0.112898
v 0.177116 1.066669 -0.468041
v 0.175900 0.780041 0.468041
v 0.064013 -0.656578 0.468041
v 0.153431 0.780041 -0.468041
v 0.064013 -0.656578 -0.468041
v 0.040328 -0.943207 0.468041
v -0.092325 -2.548515 0.468040
v 0.040328 -0.943207 -0.468041
v -0.092325 -2.548515 -0.468041
v 0.353004 3.175735 -0.189633
v 0.177116 1.046484 -0.635179
v 0.353004 2.558107 -0.880036
v 0.220351 1.034786 -1.508112
v 0.153431 0.761329 -0.635179
v 0.064013 -0.667039 -0.635179
v 0.196666 0.762797 -1.571260
v 0.064013 -0.760524 -1.571261
v 0.040328 -0.952194 -0.635179
v -0.092325 -2.549252 -0.635179
v 0.040328 -1.032513 -1.571261
v -0.092325 -2.555834 -1.571261
v 0.195959 2.553325 0.880037
v 0.063306 1.030004 1.508112
v 0.195959 3.170064 0.196200
v 0.042540 1.040812 0.635179
v 0.039621 0.758014 1.571261
v -0.093032 -0.765306 1.571260
v 0.018855 0.755657 0.635179
v -0.093032 -0.672711 0.635179
v -0.116717 -1.037296 1.571260
v -0.249370 -2.560617 1.571260
v -0.116717 -0.957866 0.635178
v -0.249370 -2.554923 0.635178
v 0.195959 3.198401 0.112899
v 0.042540 1.060898 0.468041
v 0.195959 3.198401 -0.112898
v 0.020072 1.060898 -0.468041
v 0.018855 0.774269 0.468041
v -0.093032 -0.662350 0.468041
v -0.003614 0.774270 -0.468041
v -0.093032 -0.662350 -0.468041
v -0.116717 -0.948978 0.468041
v -0.249370 -2.554286 0.468040
v -0.116717 -0.948978 -0.468041
v -0.249370 -2.554286 -0.468041
v 0.195959 3.170064 -0.174908
v 0.020072 1.040812 -0.635179
v 0.195959 2.553325 -0.880036
v 0.063306 1.030004 -1.508112
v -0.003614 0.755657 -0.635179
v -0.093032 -0.672711 -0.635179
v 0.039621 0.758015 -1.571260
v -0.093032 -0.765306 -1.571261
v -0.116717 -0.957866 -0.635179
v -0.249370 -2.554923 -0.635179
v -0.116717 -1.037295 -1.571261
v -0.249370 -2.560616 -1.571261
v -1.135115 0.927685 1.654830
v -0.978777 2.714635 0.926842
v -0.978777 3.379497 0.151896
v -0.978777 3.379497 -0.151895
v -0.978777 2.714636 -0.926842
v -1.135115 0.927685 -1.654829
v -1.291453 -0.859265 -1.654830
v -1.447791 -2.646216 -1.654830
v -1.447791 -2.646216 -0.551610
v -1.447791 -2.646216 0.551609
v -1.447791 -2.646217 1.654829
v -1.291453 -0.859266 1.654829
vt 0.461918 0.490401
vt 0.556186 0.517136
vt 0.540929 0.761214
vt 0.484772 0.674475
vt 0.947579 0.812152
vt 0.842587 0.822994
vt 0.843317 0.983760
vt 0.948381 0.983728
vt 0.611039 0.805915
vt 0.716073 0.806865
vt 0.715539 0.986686
vt 0.610526 0.977492
vt 0.337891 0.511425
vt 0.442128 0.507929
vt 0.410141 0.747951
vt 0.385003 0.748749
vt 0.477547 0.968317
vt 0.372510 0.968535
vt 0.372174 0.807021
vt 0.477241 0.806626
vt 0.491038 0.986899
vt 0.596075 0.986659
vt 0.595661 0.805915
vt 0.490624 0.806155
vt 0.693034 0.543048
vt 0.598465 0.516964
vt 0.622171 0.700972
vt 0.681098 0.788046
vt 0.829499 0.781048
vt 0.934528 0.791530
vt 0.934742 0.619950
vt 0.829593 0.620456
vt 0.729347 0.989901
vt 0.834387 0.990010
vt 0.833524 0.818434
vt 0.728441 0.810081
vt 0.189306 0.472799
vt 0.185511 0.459421
vt 0.252003 0.515296
vt 0.233939 0.544695
vt 0.227007 0.652867
vt 0.219880 0.664064
vt 0.311204 0.669156
vt 0.314135 0.666627
vt 0.227021 0.677005
vt 0.307000 0.676730
vt 0.227136 0.797867
vt 0.220012 0.809500
vt 0.307036 0.805723
vt 0.313351 0.817944
vt 0.227150 0.822005
vt 0.307042 0.828755
vt 0.227229 0.957195
vt 0.219014 0.969264
vt 0.307078 0.957748
vt 0.312568 0.969264
vt 0.162924 0.470409
vt 0.159598 0.459421
vt 0.182184 0.470409
vt 0.132748 0.651336
vt 0.125632 0.664229
vt 0.212739 0.651171
vt 0.132763 0.675598
vt 0.212754 0.675433
vt 0.133028 0.796987
vt 0.125910 0.809500
vt 0.212873 0.796987
vt 0.133043 0.821250
vt 0.212888 0.821250
vt 0.133127 0.957133
vt 0.125459 0.969264
vt 0.212972 0.957133
vt 0.116173 0.537728
vt 0.093889 0.515296
vt 0.156395 0.472799
vt 0.044332 0.653698
vt 0.031831 0.666619
vt 0.118503 0.653032
vt 0.038952 0.676730
vt 0.118517 0.677170
vt 0.038988 0.805723
vt 0.031868 0.817942
vt 0.118778 0.797867
vt 0.038994 0.828755
vt 0.118792 0.822005
vt 0.039030 0.957748
vt 0.031905 0.969264
vt 0.118871 0.957195
vt 0.918772 0.305126
vt 0.937377 0.279802
vt 0.937378 0.390312
vt 0.925584 0.411032
vt 0.256075 0.076371
vt 0.256075 0.094751
vt 0.003785 0.094751
vt 0.003785 0.076371
vt 0.357172 0.076371
vt 0.357172 0.094751
vt 0.937380 0.581616
vt 0.918772 0.583111
vt 0.968312 0.152455
vt 0.949495 0.152455
vt 0.949495 0.039158
vt 0.968312 0.039158
vt 0.968312 0.325805
vt 0.949495 0.325805
vt 0.968312 0.439633
vt 0.949495 0.439633
vt 0.968312 0.624675
vt 0.949495 0.624675
vt 0.901874 0.250715
vt 0.901874 0.269694
vt 0.789570 0.269694
vt 0.789570 0.250715
vt 0.901874 0.061243
vt 0.920262 0.061243
vt 0.920262 0.250715
vt 0.789570 0.061243
vt 0.789570 0.042196
vt 0.901874 0.042196
vt 0.770302 0.250715
vt 0.770302 0.061243
vt 0.788859 0.583111
vt 0.770302 0.583111
vt 0.770302 0.556170
vt 0.788859 0.556170
vt 0.890226 0.296992
vt 0.908768 0.296992
vt 0.908768 0.556170
vt 0.890226 0.556170
vt 0.788859 0.296992
vt 0.788859 0.279802
vt 0.890226 0.279802
vt 0.770302 0.296992
vt 0.995025 0.998315
vt 0.976205 0.998315
vt 0.976205 0.885013
vt 0.995025 0.885013
vt 0.995025 0.597382
vt 0.976205 0.597382
vt 0.976205 0.423210
vt 0.995025 0.423210
vt 0.995025 0.710651
vt 0.976205 0.710651
vt 0.419723 0.052715
vt 0.419723 0.071731
vt 0.307622 0.071731
vt 0.307622 0.052715
vt 0.612622 0.052715
vt 0.612622 0.071731
vt 0.114723 0.052715
vt 0.114723 0.071731
vt 0.002622 0.071731
vt 0.002622 0.052715
vt 0.834456 0.023528
vt 0.836992 0.009968
vt 0.963345 0.009968
vt 0.962754 0.032087
vt 0.615213 0.031944
vt 0.611312 0.009968
vt 0.992188 0.138720
vt 0.973349 0.138720
vt 0.973349 0.032833
vt 0.992188 0.032833
vt 0.992188 0.402689
vt 0.973349 0.402689
vt 0.397914 0.004975
vt 0.397914 0.023989
vt 0.285694 0.023989
vt 0.285694 0.004975
vt 0.581047 0.004975
vt 0.581047 0.023989
vt 0.114320 0.004975
vt 0.114320 0.023989
vt 0.001667 0.023989
vt 0.001667 0.004975
vt 0.418175 0.027890
vt 0.418175 0.046904
vt 0.305667 0.046904
vt 0.305667 0.027890
vt 0.601308 0.027890
vt 0.601308 0.046904
vt 0.113770 0.027890
vt 0.113770 0.046904
vt 0.001667 0.046904
vt 0.001667 0.027890
vt 0.457408 0.236869
vt 0.452327 0.337577
vt 0.307129 0.337433
vt 0.312209 0.236725
vt 0.533791 0.242417
vt 0.528711 0.343125
vt 0.556548 0.243565
vt 0.551467 0.344273
vt 0.103313 0.110816
vt 0.106368 0.211605
vt 0.029889 0.215616
vt 0.026834 0.114827
vt 0.248485 0.113590
vt 0.251540 0.214380
vt 0.382990 0.116688
vt 0.386046 0.217478
vt 0.517496 0.119787
vt 0.520551 0.220576
vt 0.123430 0.233884
vt 0.122945 0.334719
vt 0.040200 0.334321
vt 0.040685 0.233487
vt 0.206175 0.234282
vt 0.205690 0.335117
vt 0.288921 0.234680
vt 0.288436 0.335515
vt 0.568990 0.253988
vt 0.669679 0.259429
vt 0.669591 0.393970
vt 0.568902 0.388529
vt 0.569078 0.119447
vt 0.669766 0.124888
vn 0.9944 -0.0924 -0.0521
vn 0.9965 -0.0824 -0.0153
vn 0.9964 -0.0847 -0.0039
vn 0.9968 -0.0788 -0.0120
vn 0.9975 -0.0699 -0.0120
vn 0.9966 -0.0824 -0.0000
vn 0.9900 -0.1136 0.0839
vn 0.9969 -0.0746 0.0259
vn 0.9964 -0.0847 0.0039
vn 0.9959 -0.0811 -0.0407
vn 0.9963 -0.0820 -0.0241
vn 0.9945 -0.0921 -0.0495
vn 0.9945 -0.0920 -0.0495
vn 0.9966 -0.0810 -0.0131
vn 0.9966 -0.0809 -0.0153
vn 0.9955 -0.0919 -0.0216
vn 0.9958 -0.0893 -0.0197
vn 0.9965 -0.0825 -0.0146
vn 0.9961 -0.0868 -0.0175
vn 0.9967 -0.0812 -0.0079
vn 0.9966 -0.0825 -0.0041
vn 0.9963 -0.0855 -0.0107
vn 0.9963 -0.0858 -0.0083
vn 0.9965 -0.0840 -0.0048
vn 0.9963 -0.0862 -0.0062
vn 0.9965 -0.0838 -0.0013
vn 0.9965 -0.0831 -0.0012
vn 0.9963 -0.0860 -0.0025
vn 0.9963 -0.0859 -0.0024
vn 0.9961 -0.0878 0.0077
vn 0.9942 -0.0925 0.0554
vn 0.9965 -0.0828 -0.0075
vn 0.9967 -0.0815 -0.0033
vn 0.9963 -0.0826 0.0248
vn 0.9969 -0.0766 -0.0185
vn 0.9970 -0.0764 -0.0099
vn 0.9964 -0.0835 -0.0146
vn 0.9974 -0.0719 0.0011
vn 0.9969 -0.0785 0.0032
vn 0.9969 -0.0789 -0.0035
vn 0.9965 -0.0839 0.0008
vn 0.9965 -0.0836 -0.0012
vn 0.9966 -0.0824 0.0012
vn 0.9965 -0.0831 0.0012
vn 0.9966 -0.0824 -0.0012
vn 0.9948 -0.0902 0.0474
vn 0.9899 -0.0970 0.1031
vn 0.9953 -0.0914 0.0332
vn 0.9956 -0.0883 0.0308
vn 0.9912 -0.0982 0.0890
vn 0.9960 -0.0851 0.0283
vn 0.9970 -0.0737 0.0235
vn 0.9963 -0.0855 0.0107
vn 0.9963 -0.0856 0.0080
vn 0.9973 -0.0739 0.0056
vn 0.9962 -0.0864 0.0058
vn 0.9964 -0.0844 0.0053
vn 0.9963 -0.0858 0.0022
vn 0.9963 -0.0855 0.0017
vn 0.9965 -0.0836 0.0015
vn 0.0247 -0.7421 -0.6698
vn -0.0073 0.2024 0.9793
vn -0.0333 0.9994 0.0137
vn 0.0116 -0.3820 -0.9241
vn 0.0333 -0.9994 0.0013
vn -0.0000 -0.0000 1.0000
vn -0.0331 0.9946 0.0989
vn 0.0000 0.0000 -1.0000
vn 0.0331 -0.9958 -0.0850
vn -0.0333 0.9994 0.0066
vn 0.0367 -0.9993 0.0000
vn 0.0060 -0.1644 0.9864
vn -0.0367 0.9993 0.0009
vn 0.0060 -0.1643 -0.9864
vn 0.0367 -0.9993 -0.0009
vn -0.0367 0.9993 0.0000
vn 0.0562 -0.7478 0.6615
vn 0.0116 -0.3820 0.9241
vn -0.0333 0.9993 -0.0145
vn -0.0534 0.2120 -0.9758
vn 0.0333 -0.9994 -0.0005
vn -0.0331 0.9946 -0.0989
vn 0.0331 -0.9958 0.0850
vn -0.0333 0.9994 -0.0066
vn 0.0128 0.3763 0.9264
vn 0.0065 0.1917 0.9814
vn 0.0318 0.9373 0.3470
vn 0.0318 0.9373 0.3471
vn 0.0258 0.7587 0.6509
vn 0.0318 0.9373 -0.3470
vn 0.0318 0.9373 -0.3471
vn 0.0258 0.7587 -0.6509
vn 0.0065 0.1917 -0.9814
vn 0.0128 0.3763 -0.9264
vn -0.0339 -0.9994 -0.0000
usemtl Material.001
s 1
f 120/143/19 122/144/19 121/145/19 119/146/19
f 124/147/20 126/148/20 125/149/20 123/150/20
f 128/151/21 130/152/21 129/153/21 127/154/21
f 132/155/22 134/156/22 133/157/22 131/158/22
f 136/159/23 138/160/23 137/161/23 135/162/23
f 140/163/24 142/164/24 141/165/24 139/166/24
f 144/167/25 146/168/25 145/169/25 143/170/25
f 148/171/26 150/172/26 149/173/26 147/174/26
f 152/175/27 154/176/27 153/177/27 151/178/27
f 85/179/28 71/180/29 67/181/30 83/182/31
f 86/183/32 72/184/33 71/180/29 85/179/28
f 84/185/34 68/186/35 72/184/33 86/183/32
f 83/182/31 67/181/30 68/186/35 84/185/34
f 89/187/36 72/184/33 68/186/35 87/188/37
f 90/189/38 73/190/39 72/184/33 89/187/36
f 88/191/40 69/192/41 73/190/39 90/189/38
f 87/188/37 68/186/35 69/192/41 88/191/40
f 93/193/42 73/190/39 69/192/41 91/194/43
f 94/195/44 74/196/45 73/190/39 93/193/42
f 92/197/46 70/198/47 74/196/45 94/195/44
f 91/194/43 69/192/41 70/198/47 92/197/46
f 97/199/48 75/200/49 71/180/29 95/201/50
f 98/202/51 76/203/52 75/200/49 97/199/48
f 96/204/53 72/184/33 76/203/52 98/202/51
f 95/201/50 71/180/29 72/184/33 96/204/53
f 101/205/54 76/203/52 72/184/33 99/206/55
f 102/207/56 77/208/57 76/203/52 101/205/54
f 100/209/58 73/190/39 77/208/57 102/207/56
f 99/206/55 72/184/33 73/190/39 100/209/58
f 105/210/59 77/208/57 73/190/39 103/211/60
f 106/212/61 78/213/62 77/208/57 105/210/59
f 104/214/63 74/196/45 78/213/62 106/212/61
f 103/211/60 73/190/39 74/196/45 104/214/63
f 109/215/64 79/216/64 75/200/49 107/217/65
f 110/218/66 80/219/67 79/216/64 109/215/64
f 108/220/68 76/203/52 80/219/67 110/218/66
f 107/217/65 75/200/49 76/203/52 108/220/68
f 113/221/69 80/219/67 76/203/52 111/222/70
f 114/223/71 81/224/72 80/219/67 113/221/69
f 112/225/73 77/208/57 81/224/72 114/223/71
f 111/222/70 76/203/52 77/208/57 112/225/73
f 117/226/74 81/224/72 77/208/57 115/227/75
f 118/228/76 82/229/77 81/224/72 117/226/74
f 116/230/78 78/213/62 82/229/77 118/228/76
f 115/227/75 77/208/57 78/213/62 116/230/78
f 121/231/79 85/232/79 83/233/79 119/234/79
f 122/235/80 86/236/80 85/237/80 121/238/80
f 120/239/81 84/240/81 86/236/81 122/235/81
f 119/234/82 83/233/82 84/241/82 120/242/82
f 125/243/83 89/244/83 87/245/83 123/246/83
f 126/247/84 90/248/84 89/244/84 125/243/84
f 124/249/85 88/250/85 90/248/85 126/247/85
f 123/251/86 87/252/86 88/250/86 124/249/86
f 129/253/87 93/254/87 91/255/87 127/256/87
f 130/257/84 94/258/84 93/259/84 129/253/84
f 128/260/88 92/261/88 94/262/88 130/257/88
f 127/256/86 91/263/86 92/264/86 128/260/86
f 133/265/89 97/266/89 95/267/89 131/268/89
f 134/269/90 98/270/90 97/271/90 133/272/90
f 132/273/91 96/274/91 98/275/91 134/269/91
f 131/268/92 95/267/92 96/276/92 132/273/92
f 137/277/93 101/278/93 99/279/93 135/280/93
f 138/281/84 102/282/84 101/283/84 137/284/84
f 136/285/94 100/286/94 102/282/94 138/281/94
f 135/280/86 99/279/86 100/286/86 136/285/86
f 141/287/89 105/288/89 103/289/89 139/290/89
f 142/291/84 106/292/84 105/288/84 141/287/84
f 140/293/94 104/294/94 106/295/94 142/296/94
f 139/290/86 103/289/86 104/294/86 140/293/86
f 145/297/95 109/298/95 107/299/95 143/300/95
f 146/301/96 110/302/96 109/298/96 145/297/96
f 144/303/97 108/304/97 110/305/97 146/306/97
f 143/307/98 107/308/98 108/304/98 144/303/98
f 149/309/99 113/310/99 111/311/99 147/312/99
f 150/313/84 114/314/84 113/310/84 149/309/84
f 148/315/100 112/316/100 114/317/100 150/318/100
f 147/312/86 111/311/86 112/316/86 148/315/86
f 153/319/101 117/320/101 115/321/101 151/322/101
f 154/323/84 118/324/84 117/320/84 153/319/84
f 152/325/102 116/326/102 118/327/102 154/328/102
f 151/322/86 115/321/86 116/326/86 152/325/86
f 67/329/103 156/330/103 155/331/104 68/332/104
f 71/333/105 157/334/106 156/330/107 67/329/107
f 75/335/108 158/336/109 157/334/106 71/333/105
f 79/337/110 159/338/110 158/339/109 75/340/108
f 80/341/111 160/342/111 159/338/112 79/337/112
f 81/343/86 161/344/86 160/342/111 80/341/111
f 82/345/86 162/346/86 161/344/86 81/343/86
f 78/347/113 163/348/113 162/349/113 82/350/113
f 74/351/113 164/352/113 163/348/113 78/347/113
f 70/353/113 165/354/113 164/352/113 74/351/113
f 69/355/84 166/356/84 165/357/84 70/358/84
f 68/359/104 155/360/104 166/356/84 69/355/84
